<?xml version="1.0" standalone="no"?>
<!DOCTYPE svg PUBLIC "-//W3C//DTD SVG 20010904//EN"
 "http://www.w3.org/TR/2001/REC-SVG-20010904/DTD/svg10.dtd">
<svg version="1.0" xmlns="http://www.w3.org/2000/svg"
 width="50.000000pt" height="50.000000pt" viewBox="0 0 50.000000 50.000000"
 preserveAspectRatio="xMidYMid meet">

<g transform="translate(0.000000,50.000000) scale(0.100000,-0.100000)"
fill="#000000" stroke="none">
<path d="M44 447 c-3 -8 -4 -34 -2 -58 l3 -44 55 0 55 0 0 55 0 55 -53 3 c-38
2 -54 -1 -58 -11z"/>
<path d="M194 447 c-3 -8 -4 -34 -2 -58 l3 -44 55 0 55 0 0 55 0 55 -53 3
c-38 2 -54 -1 -58 -11z"/>
<path d="M344 447 c-3 -8 -4 -34 -2 -58 l3 -44 55 0 55 0 0 55 0 55 -53 3
c-38 2 -54 -1 -58 -11z"/>
<path d="M44 297 c-3 -8 -4 -34 -2 -58 l3 -44 55 0 55 0 0 55 0 55 -53 3 c-38
2 -54 -1 -58 -11z"/>
<path d="M194 297 c-3 -8 -4 -34 -2 -58 l3 -44 55 0 55 0 0 55 0 55 -53 3
c-38 2 -54 -1 -58 -11z"/>
<path d="M344 297 c-3 -8 -4 -34 -2 -58 l3 -44 55 0 55 0 0 55 0 55 -53 3
c-38 2 -54 -1 -58 -11z"/>
<path d="M44 147 c-3 -8 -4 -34 -2 -58 l3 -44 55 0 55 0 0 55 0 55 -53 3 c-38
2 -54 -1 -58 -11z"/>
<path d="M194 147 c-3 -8 -4 -34 -2 -58 l3 -44 55 0 55 0 0 55 0 55 -53 3
c-38 2 -54 -1 -58 -11z"/>
<path d="M344 147 c-3 -8 -4 -34 -2 -58 l3 -44 55 0 55 0 0 55 0 55 -53 3
c-38 2 -54 -1 -58 -11z"/>
</g>
</svg>
